<svg width="1713" height="597" viewBox="0 0 1713 597" fill="none" xmlns="http://www.w3.org/2000/svg">
<g opacity="0.6">
<path d="M1699.3 512.921L1699.3 501L1731 501L1731 532.699L1719.17 532.699L1719.17 512.921L1699.3 512.921Z" fill="white"/>
<path d="M1677.9 534.326L1677.9 522.495L1709.6 522.495L1709.6 554.104L1697.68 554.104L1697.68 534.326L1677.9 534.326Z" fill="white"/>
<path d="M1656.49 555.818L1656.49 543.897L1688.1 543.897L1688.1 575.596L1676.27 575.596L1676.27 555.818L1656.49 555.818Z" fill="white"/>
<path d="M1635 577.222L1635 565.301L1666.7 565.301L1666.7 597L1654.78 597L1654.78 577.222L1635 577.222Z" fill="white"/>
</g>
<g clip-path="url(#clip0_2505_456)">
<path d="M1049.08 30.8602C1049.08 32.0247 1048.21 32.8981 1047.04 32.8981C1045.87 32.8981 1045 32.0247 1045 30.8602C1045 29.6956 1045.87 28.8223 1047.04 28.8223C1048.21 28.8223 1049.08 29.7927 1049.08 30.8602Z" fill="white"/>
<path d="M1066.47 30.8602C1066.47 32.0247 1065.6 32.8981 1064.43 32.8981C1063.26 32.8981 1062.39 32.0247 1062.39 30.8602C1062.39 29.6956 1063.26 28.8223 1064.43 28.8223C1065.5 28.8223 1066.47 29.7927 1066.47 30.8602Z" fill="white"/>
<path d="M1083.76 30.8602C1083.76 32.0247 1082.89 32.8981 1081.72 32.8981C1080.56 32.8981 1079.68 32.0247 1079.68 30.8602C1079.68 29.6956 1080.56 28.8223 1081.72 28.8223C1082.89 28.8223 1083.76 29.7927 1083.76 30.8602Z" fill="white"/>
<path d="M1101.15 30.8602C1101.15 32.0247 1100.28 32.8981 1099.11 32.8981C1097.95 32.8981 1097.07 32.0247 1097.07 30.8602C1097.07 29.6956 1097.95 28.8223 1099.11 28.8223C1100.28 28.8223 1101.15 29.7927 1101.15 30.8602Z" fill="white"/>
<path d="M1118.54 30.8602C1118.54 32.0247 1117.67 32.8981 1116.5 32.8981C1115.33 32.8981 1114.46 32.0247 1114.46 30.8602C1114.46 29.6956 1115.33 28.8223 1116.5 28.8223C1117.57 28.8223 1118.54 29.7927 1118.54 30.8602Z" fill="white"/>
<path d="M1135.93 30.8602C1135.93 32.0247 1135.05 32.8981 1133.89 32.8981C1132.72 32.8981 1131.85 32.0247 1131.85 30.8602C1131.85 29.6956 1132.72 28.8223 1133.89 28.8223C1135.05 28.8223 1135.93 29.7927 1135.93 30.8602Z" fill="white"/>
<path d="M1153.22 30.8602C1153.22 32.0247 1152.35 32.8981 1151.18 32.8981C1150.02 32.8981 1149.14 32.0247 1149.14 30.8602C1149.14 29.6956 1150.02 28.8223 1151.18 28.8223C1152.35 28.8223 1153.22 29.7927 1153.22 30.8602Z" fill="white"/>
<path d="M1170.61 30.8602C1170.61 32.0247 1169.74 32.8981 1168.57 32.8981C1167.41 32.8981 1166.53 32.0247 1166.53 30.8602C1166.53 29.6956 1167.41 28.8223 1168.57 28.8223C1169.74 28.8223 1170.61 29.7927 1170.61 30.8602Z" fill="white"/>
<path d="M1188 30.8602C1188 32.0247 1187.13 32.8981 1185.96 32.8981C1184.79 32.8981 1183.92 32.0247 1183.92 30.8602C1183.92 29.6956 1184.79 28.8223 1185.96 28.8223C1187.03 28.8223 1188 29.7927 1188 30.8602Z" fill="white"/>
<path d="M1049.08 45.3191C1049.08 46.4837 1048.21 47.357 1047.04 47.357C1045.87 47.357 1045 46.4837 1045 45.3191C1045 44.1546 1045.87 43.2812 1047.04 43.2812C1048.21 43.2812 1049.08 44.1546 1049.08 45.3191Z" fill="white"/>
<path d="M1066.47 45.3191C1066.47 46.4837 1065.6 47.357 1064.43 47.357C1063.26 47.357 1062.39 46.4837 1062.39 45.3191C1062.39 44.1546 1063.26 43.2812 1064.43 43.2812C1065.5 43.2812 1066.47 44.1546 1066.47 45.3191Z" fill="white"/>
<path d="M1083.76 45.3191C1083.76 46.4837 1082.89 47.357 1081.72 47.357C1080.56 47.357 1079.68 46.4837 1079.68 45.3191C1079.68 44.1546 1080.56 43.2812 1081.72 43.2812C1082.89 43.2812 1083.76 44.1546 1083.76 45.3191Z" fill="white"/>
<path d="M1101.15 45.3191C1101.15 46.4837 1100.28 47.357 1099.11 47.357C1097.95 47.357 1097.07 46.4837 1097.07 45.3191C1097.07 44.1546 1097.95 43.2812 1099.11 43.2812C1100.28 43.2812 1101.15 44.1546 1101.15 45.3191Z" fill="white"/>
<path d="M1118.54 45.3191C1118.54 46.4837 1117.67 47.357 1116.5 47.357C1115.33 47.357 1114.46 46.4837 1114.46 45.3191C1114.46 44.1546 1115.33 43.2812 1116.5 43.2812C1117.57 43.2812 1118.54 44.1546 1118.54 45.3191Z" fill="white"/>
<path d="M1135.93 45.3191C1135.93 46.4837 1135.05 47.357 1133.89 47.357C1132.72 47.357 1131.85 46.4837 1131.85 45.3191C1131.85 44.1546 1132.72 43.2812 1133.89 43.2812C1135.05 43.2812 1135.93 44.1546 1135.93 45.3191Z" fill="white"/>
<path d="M1153.22 45.3191C1153.22 46.4837 1152.35 47.357 1151.18 47.357C1150.02 47.357 1149.14 46.4837 1149.14 45.3191C1149.14 44.1546 1150.02 43.2812 1151.18 43.2812C1152.35 43.2812 1153.22 44.1546 1153.22 45.3191Z" fill="white"/>
<path d="M1170.61 45.3191C1170.61 46.4837 1169.74 47.357 1168.57 47.357C1167.41 47.357 1166.53 46.4837 1166.53 45.3191C1166.53 44.1546 1167.41 43.2812 1168.57 43.2812C1169.74 43.2812 1170.61 44.1546 1170.61 45.3191Z" fill="white"/>
<path d="M1188 45.3191C1188 46.4837 1187.13 47.357 1185.96 47.357C1184.79 47.357 1183.92 46.4837 1183.92 45.3191C1183.92 44.1546 1184.79 43.2812 1185.96 43.2812C1187.03 43.2812 1188 44.1546 1188 45.3191Z" fill="white"/>
<path d="M1049.08 2.03789C1049.08 3.2024 1048.21 4.07579 1047.04 4.07579C1045.87 4.07579 1045 3.2024 1045 2.03789C1045 0.873382 1045.87 0 1047.04 0C1048.21 0 1049.08 0.873382 1049.08 2.03789Z" fill="white"/>
<path d="M1066.47 2.03789C1066.47 3.2024 1065.6 4.07579 1064.43 4.07579C1063.26 4.07579 1062.39 3.2024 1062.39 2.03789C1062.39 0.873382 1063.26 0 1064.43 0C1065.5 0 1066.47 0.873382 1066.47 2.03789Z" fill="white"/>
<path d="M1083.76 2.03789C1083.76 3.2024 1082.89 4.07579 1081.72 4.07579C1080.56 4.07579 1079.68 3.2024 1079.68 2.03789C1079.68 0.873382 1080.65 0 1081.72 0C1082.89 0 1083.76 0.873382 1083.76 2.03789Z" fill="white"/>
<path d="M1101.15 2.03789C1101.15 3.2024 1100.28 4.07579 1099.11 4.07579C1097.95 4.07579 1097.07 3.2024 1097.07 2.03789C1097.07 0.873382 1098.04 0 1099.11 0C1100.18 0 1101.15 0.873382 1101.15 2.03789Z" fill="white"/>
<path d="M1118.54 2.03789C1118.54 3.2024 1117.67 4.07579 1116.5 4.07579C1115.33 4.07579 1114.46 3.2024 1114.46 2.03789C1114.46 0.873382 1115.33 0 1116.5 0C1117.57 0 1118.54 0.873382 1118.54 2.03789Z" fill="white"/>
<path d="M1135.93 2.03789C1135.93 3.2024 1135.05 4.07579 1133.89 4.07579C1132.72 4.07579 1131.85 3.2024 1131.85 2.03789C1131.85 0.873382 1132.72 0 1133.89 0C1135.05 0 1135.93 0.873382 1135.93 2.03789Z" fill="white"/>
<path d="M1153.22 2.03789C1153.22 3.2024 1152.35 4.07579 1151.18 4.07579C1150.02 4.07579 1149.14 3.2024 1149.14 2.03789C1149.14 0.873382 1150.02 0 1151.18 0C1152.35 0 1153.22 0.873382 1153.22 2.03789Z" fill="white"/>
<path d="M1170.61 2.03789C1170.61 3.2024 1169.74 4.07579 1168.57 4.07579C1167.41 4.07579 1166.53 3.2024 1166.53 2.03789C1166.53 0.873382 1167.41 0 1168.57 0C1169.74 0 1170.61 0.873382 1170.61 2.03789Z" fill="white"/>
<path d="M1188 2.03789C1188 3.2024 1187.13 4.07579 1185.96 4.07579C1184.79 4.07579 1183.92 3.2024 1183.92 2.03789C1183.92 0.873382 1184.79 0 1185.96 0C1187.03 0 1188 0.873382 1188 2.03789Z" fill="white"/>
<path d="M1049.08 16.4969C1049.08 17.6614 1048.21 18.5348 1047.04 18.5348C1045.87 18.5348 1045 17.5643 1045 16.4969C1045 15.3324 1045.87 14.459 1047.04 14.459C1048.21 14.459 1049.08 15.3324 1049.08 16.4969Z" fill="white"/>
<path d="M1066.47 16.4969C1066.47 17.6614 1065.6 18.5348 1064.43 18.5348C1063.26 18.5348 1062.39 17.6614 1062.39 16.4969C1062.39 15.3324 1063.26 14.459 1064.43 14.459C1065.5 14.459 1066.47 15.3324 1066.47 16.4969Z" fill="white"/>
<path d="M1083.76 16.4969C1083.76 17.6614 1082.89 18.5348 1081.72 18.5348C1080.56 18.5348 1079.68 17.6614 1079.68 16.4969C1079.68 15.3324 1080.56 14.459 1081.72 14.459C1082.89 14.459 1083.76 15.3324 1083.76 16.4969Z" fill="white"/>
<path d="M1101.15 16.4969C1101.15 17.6614 1100.28 18.5348 1099.11 18.5348C1097.95 18.5348 1097.07 17.6614 1097.07 16.4969C1097.07 15.3324 1097.95 14.459 1099.11 14.459C1100.28 14.459 1101.15 15.3324 1101.15 16.4969Z" fill="white"/>
<path d="M1118.54 16.4969C1118.54 17.6614 1117.67 18.5348 1116.5 18.5348C1115.33 18.5348 1114.46 17.6614 1114.46 16.4969C1114.46 15.3324 1115.33 14.459 1116.5 14.459C1117.57 14.459 1118.54 15.3324 1118.54 16.4969Z" fill="white"/>
<path d="M1135.93 16.4969C1135.93 17.6614 1135.05 18.5348 1133.89 18.5348C1132.72 18.5348 1131.85 17.6614 1131.85 16.4969C1131.85 15.3324 1132.72 14.459 1133.89 14.459C1135.05 14.459 1135.93 15.3324 1135.93 16.4969Z" fill="white"/>
<path d="M1153.22 16.4969C1153.22 17.6614 1152.35 18.5348 1151.18 18.5348C1150.02 18.5348 1149.14 17.6614 1149.14 16.4969C1149.14 15.3324 1150.02 14.459 1151.18 14.459C1152.35 14.459 1153.22 15.3324 1153.22 16.4969Z" fill="white"/>
<path d="M1170.61 16.4969C1170.61 17.6614 1169.74 18.5348 1168.57 18.5348C1167.41 18.5348 1166.53 17.6614 1166.53 16.4969C1166.53 15.3324 1167.41 14.459 1168.57 14.459C1169.74 14.459 1170.61 15.3324 1170.61 16.4969Z" fill="white"/>
<path d="M1188 16.4969C1188 17.6614 1187.13 18.5348 1185.96 18.5348C1184.79 18.5348 1183.92 17.6614 1183.92 16.4969C1183.92 15.3324 1184.79 14.459 1185.96 14.459C1187.03 14.459 1188 15.3324 1188 16.4969Z" fill="white"/>
<path d="M1049.08 59.6805C1049.08 60.845 1048.21 61.7184 1047.04 61.7184C1045.87 61.7184 1045 60.845 1045 59.6805C1045 58.516 1045.87 57.6426 1047.04 57.6426C1048.21 57.6426 1049.08 58.613 1049.08 59.6805Z" fill="white"/>
<path d="M1066.47 59.6805C1066.47 60.845 1065.6 61.7184 1064.43 61.7184C1063.26 61.7184 1062.39 60.845 1062.39 59.6805C1062.39 58.516 1063.26 57.6426 1064.43 57.6426C1065.5 57.6426 1066.47 58.613 1066.47 59.6805Z" fill="white"/>
<path d="M1083.76 59.6805C1083.76 60.845 1082.89 61.7184 1081.72 61.7184C1080.56 61.7184 1079.68 60.845 1079.68 59.6805C1079.68 58.516 1080.56 57.6426 1081.72 57.6426C1082.89 57.6426 1083.76 58.613 1083.76 59.6805Z" fill="white"/>
<path d="M1101.15 59.6805C1101.15 60.845 1100.28 61.7184 1099.11 61.7184C1097.95 61.7184 1097.07 60.845 1097.07 59.6805C1097.07 58.516 1097.95 57.6426 1099.11 57.6426C1100.28 57.6426 1101.15 58.613 1101.15 59.6805Z" fill="white"/>
<path d="M1118.54 59.6805C1118.54 60.845 1117.67 61.7184 1116.5 61.7184C1115.33 61.7184 1114.46 60.845 1114.46 59.6805C1114.46 58.516 1115.33 57.6426 1116.5 57.6426C1117.57 57.6426 1118.54 58.613 1118.54 59.6805Z" fill="white"/>
<path d="M1135.93 59.6805C1135.93 60.845 1135.05 61.7184 1133.89 61.7184C1132.72 61.7184 1131.85 60.845 1131.85 59.6805C1131.85 58.516 1132.72 57.6426 1133.89 57.6426C1135.05 57.6426 1135.93 58.613 1135.93 59.6805Z" fill="white"/>
<path d="M1153.22 59.6805C1153.22 60.845 1152.35 61.7184 1151.18 61.7184C1150.02 61.7184 1149.14 60.845 1149.14 59.6805C1149.14 58.516 1150.02 57.6426 1151.18 57.6426C1152.35 57.6426 1153.22 58.613 1153.22 59.6805Z" fill="white"/>
<path d="M1170.61 59.6805C1170.61 60.845 1169.74 61.7184 1168.57 61.7184C1167.41 61.7184 1166.53 60.845 1166.53 59.6805C1166.53 58.516 1167.41 57.6426 1168.57 57.6426C1169.74 57.6426 1170.61 58.613 1170.61 59.6805Z" fill="white"/>
<path d="M1188 59.6805C1188 60.845 1187.13 61.7184 1185.96 61.7184C1184.79 61.7184 1183.92 60.845 1183.92 59.6805C1183.92 58.516 1184.79 57.6426 1185.96 57.6426C1187.03 57.6426 1188 58.613 1188 59.6805Z" fill="white"/>
<path d="M1049.08 74.1395C1049.08 75.304 1048.21 76.1773 1047.04 76.1773C1045.87 76.1773 1045 75.304 1045 74.1395C1045 72.9749 1045.87 72.1016 1047.04 72.1016C1048.21 72.1016 1049.08 72.9749 1049.08 74.1395Z" fill="white"/>
<path d="M1066.47 74.1395C1066.47 75.304 1065.6 76.1773 1064.43 76.1773C1063.26 76.1773 1062.39 75.304 1062.39 74.1395C1062.39 72.9749 1063.26 72.1016 1064.43 72.1016C1065.5 72.1016 1066.47 72.9749 1066.47 74.1395Z" fill="white"/>
<path d="M1083.76 74.1395C1083.76 75.304 1082.89 76.1773 1081.72 76.1773C1080.56 76.1773 1079.68 75.304 1079.68 74.1395C1079.68 72.9749 1080.56 72.1016 1081.72 72.1016C1082.89 72.1016 1083.76 72.9749 1083.76 74.1395Z" fill="white"/>
<path d="M1099.11 76.1773C1100.24 76.1773 1101.15 75.265 1101.15 74.1395C1101.15 73.014 1100.24 72.1016 1099.11 72.1016C1097.98 72.1016 1097.07 73.014 1097.07 74.1395C1097.07 75.265 1097.98 76.1773 1099.11 76.1773Z" fill="white"/>
<path d="M1118.54 74.1395C1118.54 75.304 1117.67 76.1773 1116.5 76.1773C1115.33 76.1773 1114.46 75.304 1114.46 74.1395C1114.46 72.9749 1115.33 72.1016 1116.5 72.1016C1117.57 72.1016 1118.54 72.9749 1118.54 74.1395Z" fill="white"/>
<path d="M1135.93 74.1395C1135.93 75.304 1135.05 76.1773 1133.89 76.1773C1132.72 76.1773 1131.85 75.304 1131.85 74.1395C1131.85 72.9749 1132.72 72.1016 1133.89 72.1016C1135.05 72.1016 1135.93 72.9749 1135.93 74.1395Z" fill="white"/>
<path d="M1153.22 74.1395C1153.22 75.304 1152.35 76.1773 1151.18 76.1773C1150.02 76.1773 1149.14 75.304 1149.14 74.1395C1149.14 72.9749 1150.02 72.1016 1151.18 72.1016C1152.35 72.1016 1153.22 72.9749 1153.22 74.1395Z" fill="white"/>
<path d="M1168.57 76.1773C1169.7 76.1773 1170.61 75.265 1170.61 74.1395C1170.61 73.014 1169.7 72.1016 1168.57 72.1016C1167.44 72.1016 1166.53 73.014 1166.53 74.1395C1166.53 75.265 1167.44 76.1773 1168.57 76.1773Z" fill="white"/>
<path d="M1188 74.1395C1188 75.304 1187.13 76.1773 1185.96 76.1773C1184.79 76.1773 1183.92 75.304 1183.92 74.1395C1183.92 72.9749 1184.79 72.1016 1185.96 72.1016C1187.03 72.1016 1188 72.9749 1188 74.1395Z" fill="white"/>
<path d="M1049.08 88.6004C1049.08 89.7649 1048.21 90.6383 1047.04 90.6383C1045.87 90.6383 1045 89.7649 1045 88.6004C1045 87.4359 1045.87 86.5625 1047.04 86.5625C1048.21 86.5625 1049.08 87.4359 1049.08 88.6004Z" fill="white"/>
<path d="M1066.47 88.6004C1066.47 89.7649 1065.6 90.6383 1064.43 90.6383C1063.26 90.6383 1062.39 89.7649 1062.39 88.6004C1062.39 87.4359 1063.26 86.5625 1064.43 86.5625C1065.5 86.5625 1066.47 87.4359 1066.47 88.6004Z" fill="white"/>
<path d="M1083.76 88.6004C1083.76 89.7649 1082.89 90.6383 1081.72 90.6383C1080.56 90.6383 1079.68 89.7649 1079.68 88.6004C1079.68 87.4359 1080.56 86.5625 1081.72 86.5625C1082.89 86.5625 1083.76 87.4359 1083.76 88.6004Z" fill="white"/>
<path d="M1101.15 88.6004C1101.15 89.7649 1100.28 90.6383 1099.11 90.6383C1097.95 90.6383 1097.07 89.7649 1097.07 88.6004C1097.07 87.4359 1097.95 86.5625 1099.11 86.5625C1100.28 86.5625 1101.15 87.4359 1101.15 88.6004Z" fill="white"/>
<path d="M1118.54 88.6004C1118.54 89.7649 1117.67 90.6383 1116.5 90.6383C1115.33 90.6383 1114.46 89.7649 1114.46 88.6004C1114.46 87.4359 1115.33 86.5625 1116.5 86.5625C1117.57 86.5625 1118.54 87.4359 1118.54 88.6004Z" fill="white"/>
<path d="M1135.93 88.6004C1135.93 89.7649 1135.05 90.6383 1133.89 90.6383C1132.72 90.6383 1131.85 89.7649 1131.85 88.6004C1131.85 87.4359 1132.72 86.5625 1133.89 86.5625C1135.05 86.5625 1135.93 87.4359 1135.93 88.6004Z" fill="white"/>
<path d="M1153.22 88.6004C1153.22 89.7649 1152.35 90.6383 1151.18 90.6383C1150.02 90.6383 1149.14 89.7649 1149.14 88.6004C1149.14 87.4359 1150.02 86.5625 1151.18 86.5625C1152.35 86.5625 1153.22 87.4359 1153.22 88.6004Z" fill="white"/>
<path d="M1170.61 88.6004C1170.61 89.7649 1169.74 90.6383 1168.57 90.6383C1167.41 90.6383 1166.53 89.7649 1166.53 88.6004C1166.53 87.4359 1167.41 86.5625 1168.57 86.5625C1169.74 86.5625 1170.61 87.4359 1170.61 88.6004Z" fill="white"/>
<path d="M1188 88.6004C1188 89.7649 1187.13 90.6383 1185.96 90.6383C1184.79 90.6383 1183.92 89.7649 1183.92 88.6004C1183.92 87.4359 1184.79 86.5625 1185.96 86.5625C1187.03 86.5625 1188 87.4359 1188 88.6004Z" fill="white"/>
<path d="M1049.08 102.962C1049.08 104.126 1048.21 105 1047.04 105C1045.87 105 1045 104.126 1045 102.962C1045 101.797 1045.87 100.924 1047.04 100.924C1048.21 100.924 1049.08 101.894 1049.08 102.962Z" fill="white"/>
<path d="M1066.47 102.962C1066.47 104.126 1065.6 105 1064.43 105C1063.26 105 1062.39 104.126 1062.39 102.962C1062.39 101.797 1063.26 100.924 1064.43 100.924C1065.5 100.924 1066.47 101.894 1066.47 102.962Z" fill="white"/>
<path d="M1083.76 102.962C1083.76 104.126 1082.89 105 1081.72 105C1080.56 105 1079.68 104.126 1079.68 102.962C1079.68 101.797 1080.56 100.924 1081.72 100.924C1082.89 100.924 1083.76 101.894 1083.76 102.962Z" fill="white"/>
<path d="M1101.15 102.962C1101.15 104.126 1100.28 105 1099.11 105C1097.95 105 1097.07 104.126 1097.07 102.962C1097.07 101.797 1097.95 100.924 1099.11 100.924C1100.28 100.924 1101.15 101.894 1101.15 102.962Z" fill="white"/>
<path d="M1118.54 102.962C1118.54 104.126 1117.67 105 1116.5 105C1115.33 105 1114.46 104.126 1114.46 102.962C1114.46 101.797 1115.33 100.924 1116.5 100.924C1117.57 100.924 1118.54 101.894 1118.54 102.962Z" fill="white"/>
<path d="M1135.93 102.962C1135.93 104.126 1135.05 105 1133.89 105C1132.72 105 1131.85 104.126 1131.85 102.962C1131.85 101.797 1132.72 100.924 1133.89 100.924C1135.05 100.924 1135.93 101.894 1135.93 102.962Z" fill="white"/>
<path d="M1153.22 102.962C1153.22 104.126 1152.35 105 1151.18 105C1150.02 105 1149.14 104.126 1149.14 102.962C1149.14 101.797 1150.02 100.924 1151.18 100.924C1152.35 100.924 1153.22 101.894 1153.22 102.962Z" fill="white"/>
<path d="M1170.61 102.962C1170.61 104.126 1169.74 105 1168.57 105C1167.41 105 1166.53 104.126 1166.53 102.962C1166.53 101.797 1167.41 100.924 1168.57 100.924C1169.74 100.924 1170.61 101.894 1170.61 102.962Z" fill="white"/>
<path d="M1188 102.962C1188 104.126 1187.13 105 1185.96 105C1184.79 105 1183.92 104.126 1183.92 102.962C1183.92 101.797 1184.79 100.924 1185.96 100.924C1187.03 100.924 1188 101.894 1188 102.962Z" fill="white"/>
</g>
<path opacity="0.6" d="M38 81.9782C28.6376 91.3406 13.3842 91.3406 4.02181 81.9782C-5.3406 72.6158 -5.3406 57.3624 4.02181 48L38 81.9782Z" fill="white"/>
<defs>
<clipPath id="clip0_2505_456">
<rect width="143" height="105" fill="white" transform="translate(1045)"/>
</clipPath>
</defs>
</svg>
