<svg width="1845" height="1129" viewBox="0 0 1845 1129" fill="none" xmlns="http://www.w3.org/2000/svg">
<g opacity="0.4" clip-path="url(#clip0_2505_472)">
<path d="M1842.09 871C1770.73 871 1713 928.727 1713 1000.09C1713 1071.27 1770.73 1129.18 1842.09 1129.18C1913.27 1129.18 1971.18 1071.45 1971.18 1000.09C1971 928.727 1913.27 871 1842.09 871ZM1842.09 1120.85C1775.33 1120.85 1721.32 1066.85 1721.32 1000.09C1721.32 933.331 1775.33 879.323 1842.09 879.323C1908.85 879.323 1962.85 933.331 1962.85 1000.09C1962.85 1066.67 1908.67 1120.85 1842.09 1120.85Z" fill="white"/>
<path d="M1842.09 898.801C1786.31 898.801 1740.98 944.132 1740.98 999.911C1740.98 1055.69 1786.31 1101.02 1842.09 1101.02C1897.87 1101.02 1943.2 1055.87 1943.2 1000.09C1943.2 944.132 1897.87 898.801 1842.09 898.801ZM1842.09 1085.62C1794.81 1085.62 1756.38 1047.19 1756.38 999.911C1756.38 952.632 1794.81 914.206 1842.09 914.206C1889.37 914.206 1927.79 952.632 1927.79 999.911C1927.79 1047.19 1889.37 1085.62 1842.09 1085.62Z" fill="white"/>
</g>
<g clip-path="url(#clip1_2505_472)">
<path d="M272.08 861.86C272.08 863.025 271.206 863.898 270.04 863.898C268.874 863.898 268 863.025 268 861.86C268 860.696 268.874 859.822 270.04 859.822C271.206 859.822 272.08 860.793 272.08 861.86Z" fill="white"/>
<path d="M289.469 861.86C289.469 863.025 288.595 863.898 287.429 863.898C286.263 863.898 285.389 863.025 285.389 861.86C285.389 860.696 286.263 859.822 287.429 859.822C288.498 859.822 289.469 860.793 289.469 861.86Z" fill="white"/>
<path d="M306.762 861.86C306.762 863.025 305.887 863.898 304.722 863.898C303.556 863.898 302.682 863.025 302.682 861.86C302.682 860.696 303.556 859.822 304.722 859.822C305.887 859.822 306.762 860.793 306.762 861.86Z" fill="white"/>
<path d="M324.151 861.86C324.151 863.025 323.277 863.898 322.111 863.898C320.945 863.898 320.071 863.025 320.071 861.86C320.071 860.696 320.945 859.822 322.111 859.822C323.277 859.822 324.151 860.793 324.151 861.86Z" fill="white"/>
<path d="M341.54 861.86C341.54 863.025 340.666 863.898 339.5 863.898C338.334 863.898 337.46 863.025 337.46 861.86C337.46 860.696 338.334 859.822 339.5 859.822C340.569 859.822 341.54 860.793 341.54 861.86Z" fill="white"/>
<path d="M358.929 861.86C358.929 863.025 358.055 863.898 356.889 863.898C355.723 863.898 354.849 863.025 354.849 861.86C354.849 860.696 355.723 859.822 356.889 859.822C358.055 859.822 358.929 860.793 358.929 861.86Z" fill="white"/>
<path d="M376.222 861.86C376.222 863.025 375.347 863.898 374.182 863.898C373.016 863.898 372.142 863.025 372.142 861.86C372.142 860.696 373.016 859.822 374.182 859.822C375.347 859.822 376.222 860.793 376.222 861.86Z" fill="white"/>
<path d="M393.611 861.86C393.611 863.025 392.737 863.898 391.571 863.898C390.405 863.898 389.531 863.025 389.531 861.86C389.531 860.696 390.405 859.822 391.571 859.822C392.737 859.822 393.611 860.793 393.611 861.86Z" fill="white"/>
<path d="M411 861.86C411 863.025 410.126 863.898 408.96 863.898C407.794 863.898 406.92 863.025 406.92 861.86C406.92 860.696 407.794 859.822 408.96 859.822C410.029 859.822 411 860.793 411 861.86Z" fill="white"/>
<path d="M272.08 876.319C272.08 877.484 271.206 878.357 270.04 878.357C268.874 878.357 268 877.484 268 876.319C268 875.155 268.874 874.281 270.04 874.281C271.206 874.281 272.08 875.155 272.08 876.319Z" fill="white"/>
<path d="M289.469 876.319C289.469 877.484 288.595 878.357 287.429 878.357C286.263 878.357 285.389 877.484 285.389 876.319C285.389 875.155 286.263 874.281 287.429 874.281C288.498 874.281 289.469 875.155 289.469 876.319Z" fill="white"/>
<path d="M306.762 876.319C306.762 877.484 305.887 878.357 304.722 878.357C303.556 878.357 302.682 877.484 302.682 876.319C302.682 875.155 303.556 874.281 304.722 874.281C305.887 874.281 306.762 875.155 306.762 876.319Z" fill="white"/>
<path d="M324.151 876.319C324.151 877.484 323.277 878.357 322.111 878.357C320.945 878.357 320.071 877.484 320.071 876.319C320.071 875.155 320.945 874.281 322.111 874.281C323.277 874.281 324.151 875.155 324.151 876.319Z" fill="white"/>
<path d="M341.54 876.319C341.54 877.484 340.666 878.357 339.5 878.357C338.334 878.357 337.46 877.484 337.46 876.319C337.46 875.155 338.334 874.281 339.5 874.281C340.569 874.281 341.54 875.155 341.54 876.319Z" fill="white"/>
<path d="M358.929 876.319C358.929 877.484 358.055 878.357 356.889 878.357C355.723 878.357 354.849 877.484 354.849 876.319C354.849 875.155 355.723 874.281 356.889 874.281C358.055 874.281 358.929 875.155 358.929 876.319Z" fill="white"/>
<path d="M376.222 876.319C376.222 877.484 375.347 878.357 374.182 878.357C373.016 878.357 372.142 877.484 372.142 876.319C372.142 875.155 373.016 874.281 374.182 874.281C375.347 874.281 376.222 875.155 376.222 876.319Z" fill="white"/>
<path d="M393.611 876.319C393.611 877.484 392.737 878.357 391.571 878.357C390.405 878.357 389.531 877.484 389.531 876.319C389.531 875.155 390.405 874.281 391.571 874.281C392.737 874.281 393.611 875.155 393.611 876.319Z" fill="white"/>
<path d="M411 876.319C411 877.484 410.126 878.357 408.96 878.357C407.794 878.357 406.92 877.484 406.92 876.319C406.92 875.155 407.794 874.281 408.96 874.281C410.029 874.281 411 875.155 411 876.319Z" fill="white"/>
<path d="M272.08 833.038C272.08 834.202 271.206 835.076 270.04 835.076C268.874 835.076 268 834.202 268 833.038C268 831.873 268.874 831 270.04 831C271.206 831 272.08 831.873 272.08 833.038Z" fill="white"/>
<path d="M289.469 833.038C289.469 834.202 288.595 835.076 287.429 835.076C286.263 835.076 285.389 834.202 285.389 833.038C285.389 831.873 286.263 831 287.429 831C288.498 831 289.469 831.873 289.469 833.038Z" fill="white"/>
<path d="M306.762 833.038C306.762 834.202 305.887 835.076 304.722 835.076C303.556 835.076 302.682 834.202 302.682 833.038C302.682 831.873 303.653 831 304.722 831C305.887 831 306.762 831.873 306.762 833.038Z" fill="white"/>
<path d="M324.151 833.038C324.151 834.202 323.277 835.076 322.111 835.076C320.945 835.076 320.071 834.202 320.071 833.038C320.071 831.873 321.042 831 322.111 831C323.179 831 324.151 831.873 324.151 833.038Z" fill="white"/>
<path d="M341.54 833.038C341.54 834.202 340.666 835.076 339.5 835.076C338.334 835.076 337.46 834.202 337.46 833.038C337.46 831.873 338.334 831 339.5 831C340.569 831 341.54 831.873 341.54 833.038Z" fill="white"/>
<path d="M358.929 833.038C358.929 834.202 358.055 835.076 356.889 835.076C355.723 835.076 354.849 834.202 354.849 833.038C354.849 831.873 355.723 831 356.889 831C358.055 831 358.929 831.873 358.929 833.038Z" fill="white"/>
<path d="M376.222 833.038C376.222 834.202 375.347 835.076 374.182 835.076C373.016 835.076 372.142 834.202 372.142 833.038C372.142 831.873 373.016 831 374.182 831C375.347 831 376.222 831.873 376.222 833.038Z" fill="white"/>
<path d="M393.611 833.038C393.611 834.202 392.737 835.076 391.571 835.076C390.405 835.076 389.531 834.202 389.531 833.038C389.531 831.873 390.405 831 391.571 831C392.737 831 393.611 831.873 393.611 833.038Z" fill="white"/>
<path d="M411 833.038C411 834.202 410.126 835.076 408.96 835.076C407.794 835.076 406.92 834.202 406.92 833.038C406.92 831.873 407.794 831 408.96 831C410.029 831 411 831.873 411 833.038Z" fill="white"/>
<path d="M272.08 847.497C272.08 848.661 271.206 849.535 270.04 849.535C268.874 849.535 268 848.564 268 847.497C268 846.332 268.874 845.459 270.04 845.459C271.206 845.459 272.08 846.332 272.08 847.497Z" fill="white"/>
<path d="M289.469 847.497C289.469 848.661 288.595 849.535 287.429 849.535C286.263 849.535 285.389 848.661 285.389 847.497C285.389 846.332 286.263 845.459 287.429 845.459C288.498 845.459 289.469 846.332 289.469 847.497Z" fill="white"/>
<path d="M306.762 847.497C306.762 848.661 305.887 849.535 304.722 849.535C303.556 849.535 302.682 848.661 302.682 847.497C302.682 846.332 303.556 845.459 304.722 845.459C305.887 845.459 306.762 846.332 306.762 847.497Z" fill="white"/>
<path d="M324.151 847.497C324.151 848.661 323.277 849.535 322.111 849.535C320.945 849.535 320.071 848.661 320.071 847.497C320.071 846.332 320.945 845.459 322.111 845.459C323.277 845.459 324.151 846.332 324.151 847.497Z" fill="white"/>
<path d="M341.54 847.497C341.54 848.661 340.666 849.535 339.5 849.535C338.334 849.535 337.46 848.661 337.46 847.497C337.46 846.332 338.334 845.459 339.5 845.459C340.569 845.459 341.54 846.332 341.54 847.497Z" fill="white"/>
<path d="M358.929 847.497C358.929 848.661 358.055 849.535 356.889 849.535C355.723 849.535 354.849 848.661 354.849 847.497C354.849 846.332 355.723 845.459 356.889 845.459C358.055 845.459 358.929 846.332 358.929 847.497Z" fill="white"/>
<path d="M376.222 847.497C376.222 848.661 375.347 849.535 374.182 849.535C373.016 849.535 372.142 848.661 372.142 847.497C372.142 846.332 373.016 845.459 374.182 845.459C375.347 845.459 376.222 846.332 376.222 847.497Z" fill="white"/>
<path d="M393.611 847.497C393.611 848.661 392.737 849.535 391.571 849.535C390.405 849.535 389.531 848.661 389.531 847.497C389.531 846.332 390.405 845.459 391.571 845.459C392.737 845.459 393.611 846.332 393.611 847.497Z" fill="white"/>
<path d="M411 847.497C411 848.661 410.126 849.535 408.96 849.535C407.794 849.535 406.92 848.661 406.92 847.497C406.92 846.332 407.794 845.459 408.96 845.459C410.029 845.459 411 846.332 411 847.497Z" fill="white"/>
<path d="M272.08 890.68C272.08 891.845 271.206 892.718 270.04 892.718C268.874 892.718 268 891.845 268 890.68C268 889.516 268.874 888.643 270.04 888.643C271.206 888.643 272.08 889.613 272.08 890.68Z" fill="white"/>
<path d="M289.469 890.68C289.469 891.845 288.595 892.718 287.429 892.718C286.263 892.718 285.389 891.845 285.389 890.68C285.389 889.516 286.263 888.643 287.429 888.643C288.498 888.643 289.469 889.613 289.469 890.68Z" fill="white"/>
<path d="M306.762 890.68C306.762 891.845 305.887 892.718 304.722 892.718C303.556 892.718 302.682 891.845 302.682 890.68C302.682 889.516 303.556 888.643 304.722 888.643C305.887 888.643 306.762 889.613 306.762 890.68Z" fill="white"/>
<path d="M324.151 890.68C324.151 891.845 323.277 892.718 322.111 892.718C320.945 892.718 320.071 891.845 320.071 890.68C320.071 889.516 320.945 888.643 322.111 888.643C323.277 888.643 324.151 889.613 324.151 890.68Z" fill="white"/>
<path d="M341.54 890.68C341.54 891.845 340.666 892.718 339.5 892.718C338.334 892.718 337.46 891.845 337.46 890.68C337.46 889.516 338.334 888.643 339.5 888.643C340.569 888.643 341.54 889.613 341.54 890.68Z" fill="white"/>
<path d="M358.929 890.68C358.929 891.845 358.055 892.718 356.889 892.718C355.723 892.718 354.849 891.845 354.849 890.68C354.849 889.516 355.723 888.643 356.889 888.643C358.055 888.643 358.929 889.613 358.929 890.68Z" fill="white"/>
<path d="M376.222 890.68C376.222 891.845 375.347 892.718 374.182 892.718C373.016 892.718 372.142 891.845 372.142 890.68C372.142 889.516 373.016 888.643 374.182 888.643C375.347 888.643 376.222 889.613 376.222 890.68Z" fill="white"/>
<path d="M393.611 890.68C393.611 891.845 392.737 892.718 391.571 892.718C390.405 892.718 389.531 891.845 389.531 890.68C389.531 889.516 390.405 888.643 391.571 888.643C392.737 888.643 393.611 889.613 393.611 890.68Z" fill="white"/>
<path d="M411 890.68C411 891.845 410.126 892.718 408.96 892.718C407.794 892.718 406.92 891.845 406.92 890.68C406.92 889.516 407.794 888.643 408.96 888.643C410.029 888.643 411 889.613 411 890.68Z" fill="white"/>
<path d="M272.08 905.139C272.08 906.304 271.206 907.177 270.04 907.177C268.874 907.177 268 906.304 268 905.139C268 903.975 268.874 903.102 270.04 903.102C271.206 903.102 272.08 903.975 272.08 905.139Z" fill="white"/>
<path d="M289.469 905.139C289.469 906.304 288.595 907.177 287.429 907.177C286.263 907.177 285.389 906.304 285.389 905.139C285.389 903.975 286.263 903.102 287.429 903.102C288.498 903.102 289.469 903.975 289.469 905.139Z" fill="white"/>
<path d="M306.762 905.139C306.762 906.304 305.887 907.177 304.722 907.177C303.556 907.177 302.682 906.304 302.682 905.139C302.682 903.975 303.556 903.102 304.722 903.102C305.887 903.102 306.762 903.975 306.762 905.139Z" fill="white"/>
<path d="M322.111 907.177C323.238 907.177 324.151 906.265 324.151 905.139C324.151 904.014 323.238 903.102 322.111 903.102C320.984 903.102 320.071 904.014 320.071 905.139C320.071 906.265 320.984 907.177 322.111 907.177Z" fill="white"/>
<path d="M341.54 905.139C341.54 906.304 340.666 907.177 339.5 907.177C338.334 907.177 337.46 906.304 337.46 905.139C337.46 903.975 338.334 903.102 339.5 903.102C340.569 903.102 341.54 903.975 341.54 905.139Z" fill="white"/>
<path d="M358.929 905.139C358.929 906.304 358.055 907.177 356.889 907.177C355.723 907.177 354.849 906.304 354.849 905.139C354.849 903.975 355.723 903.102 356.889 903.102C358.055 903.102 358.929 903.975 358.929 905.139Z" fill="white"/>
<path d="M376.222 905.139C376.222 906.304 375.347 907.177 374.182 907.177C373.016 907.177 372.142 906.304 372.142 905.139C372.142 903.975 373.016 903.102 374.182 903.102C375.347 903.102 376.222 903.975 376.222 905.139Z" fill="white"/>
<path d="M391.571 907.177C392.698 907.177 393.611 906.265 393.611 905.139C393.611 904.014 392.698 903.102 391.571 903.102C390.444 903.102 389.531 904.014 389.531 905.139C389.531 906.265 390.444 907.177 391.571 907.177Z" fill="white"/>
<path d="M411 905.139C411 906.304 410.126 907.177 408.96 907.177C407.794 907.177 406.92 906.304 406.92 905.139C406.92 903.975 407.794 903.102 408.96 903.102C410.029 903.102 411 903.975 411 905.139Z" fill="white"/>
<path d="M272.08 919.6C272.08 920.765 271.206 921.638 270.04 921.638C268.874 921.638 268 920.765 268 919.6C268 918.436 268.874 917.562 270.04 917.562C271.206 917.562 272.08 918.436 272.08 919.6Z" fill="white"/>
<path d="M289.469 919.6C289.469 920.765 288.595 921.638 287.429 921.638C286.263 921.638 285.389 920.765 285.389 919.6C285.389 918.436 286.263 917.562 287.429 917.562C288.498 917.562 289.469 918.436 289.469 919.6Z" fill="white"/>
<path d="M306.762 919.6C306.762 920.765 305.887 921.638 304.722 921.638C303.556 921.638 302.682 920.765 302.682 919.6C302.682 918.436 303.556 917.562 304.722 917.562C305.887 917.562 306.762 918.436 306.762 919.6Z" fill="white"/>
<path d="M324.151 919.6C324.151 920.765 323.277 921.638 322.111 921.638C320.945 921.638 320.071 920.765 320.071 919.6C320.071 918.436 320.945 917.562 322.111 917.562C323.277 917.562 324.151 918.436 324.151 919.6Z" fill="white"/>
<path d="M341.54 919.6C341.54 920.765 340.666 921.638 339.5 921.638C338.334 921.638 337.46 920.765 337.46 919.6C337.46 918.436 338.334 917.562 339.5 917.562C340.569 917.562 341.54 918.436 341.54 919.6Z" fill="white"/>
<path d="M358.929 919.6C358.929 920.765 358.055 921.638 356.889 921.638C355.723 921.638 354.849 920.765 354.849 919.6C354.849 918.436 355.723 917.562 356.889 917.562C358.055 917.562 358.929 918.436 358.929 919.6Z" fill="white"/>
<path d="M376.222 919.6C376.222 920.765 375.347 921.638 374.182 921.638C373.016 921.638 372.142 920.765 372.142 919.6C372.142 918.436 373.016 917.562 374.182 917.562C375.347 917.562 376.222 918.436 376.222 919.6Z" fill="white"/>
<path d="M393.611 919.6C393.611 920.765 392.737 921.638 391.571 921.638C390.405 921.638 389.531 920.765 389.531 919.6C389.531 918.436 390.405 917.562 391.571 917.562C392.737 917.562 393.611 918.436 393.611 919.6Z" fill="white"/>
<path d="M411 919.6C411 920.765 410.126 921.638 408.96 921.638C407.794 921.638 406.92 920.765 406.92 919.6C406.92 918.436 407.794 917.562 408.96 917.562C410.029 917.562 411 918.436 411 919.6Z" fill="white"/>
<path d="M272.08 933.962C272.08 935.126 271.206 936 270.04 936C268.874 936 268 935.126 268 933.962C268 932.797 268.874 931.924 270.04 931.924C271.206 931.924 272.08 932.894 272.08 933.962Z" fill="white"/>
<path d="M289.469 933.962C289.469 935.126 288.595 936 287.429 936C286.263 936 285.389 935.126 285.389 933.962C285.389 932.797 286.263 931.924 287.429 931.924C288.498 931.924 289.469 932.894 289.469 933.962Z" fill="white"/>
<path d="M306.762 933.962C306.762 935.126 305.887 936 304.722 936C303.556 936 302.682 935.126 302.682 933.962C302.682 932.797 303.556 931.924 304.722 931.924C305.887 931.924 306.762 932.894 306.762 933.962Z" fill="white"/>
<path d="M324.151 933.962C324.151 935.126 323.277 936 322.111 936C320.945 936 320.071 935.126 320.071 933.962C320.071 932.797 320.945 931.924 322.111 931.924C323.277 931.924 324.151 932.894 324.151 933.962Z" fill="white"/>
<path d="M341.54 933.962C341.54 935.126 340.666 936 339.5 936C338.334 936 337.46 935.126 337.46 933.962C337.46 932.797 338.334 931.924 339.5 931.924C340.569 931.924 341.54 932.894 341.54 933.962Z" fill="white"/>
<path d="M358.929 933.962C358.929 935.126 358.055 936 356.889 936C355.723 936 354.849 935.126 354.849 933.962C354.849 932.797 355.723 931.924 356.889 931.924C358.055 931.924 358.929 932.894 358.929 933.962Z" fill="white"/>
<path d="M376.222 933.962C376.222 935.126 375.347 936 374.182 936C373.016 936 372.142 935.126 372.142 933.962C372.142 932.797 373.016 931.924 374.182 931.924C375.347 931.924 376.222 932.894 376.222 933.962Z" fill="white"/>
<path d="M393.611 933.962C393.611 935.126 392.737 936 391.571 936C390.405 936 389.531 935.126 389.531 933.962C389.531 932.797 390.405 931.924 391.571 931.924C392.737 931.924 393.611 932.894 393.611 933.962Z" fill="white"/>
<path d="M411 933.962C411 935.126 410.126 936 408.96 936C407.794 936 406.92 935.126 406.92 933.962C406.92 932.797 407.794 931.924 408.96 931.924C410.029 931.924 411 932.894 411 933.962Z" fill="white"/>
</g>
<g opacity="0.6">
<path d="M1173.73 454.89C1184.33 454.89 1192.96 446.165 1192.96 435.453C1192.96 424.742 1184.33 416.017 1173.73 416.017L1173.73 454.89Z" fill="white"/>
<path d="M1143.73 454.89C1154.33 454.89 1162.96 446.165 1162.96 435.453C1162.96 424.742 1154.33 416.017 1143.73 416.017L1143.73 454.89Z" fill="white"/>
<path d="M1113.73 454.89C1124.33 454.89 1132.96 446.165 1132.96 435.453C1132.96 424.742 1124.33 416.017 1113.73 416.017L1113.73 454.89Z" fill="white"/>
</g>
<g opacity="0.6" clip-path="url(#clip2_2505_472)">
<path d="M72.5498 313C32.4434 313 0 345.443 0 385.55C0 425.557 32.4434 458.1 72.5498 458.1C112.557 458.1 145.1 425.656 145.1 385.55C145 345.443 112.557 313 72.5498 313ZM72.5498 453.422C35.0309 453.422 4.67742 423.069 4.67742 385.55C4.67742 348.031 35.0309 317.677 72.5498 317.677C110.069 317.677 140.422 348.031 140.422 385.55C140.422 422.969 109.969 453.422 72.5498 453.422Z" fill="white"/>
<path d="M72.5498 328.625C41.2011 328.625 15.7241 354.102 15.7241 385.451C15.7241 416.799 41.2011 442.276 72.5498 442.276C103.898 442.276 129.375 416.899 129.375 385.55C129.375 354.102 103.898 328.625 72.5498 328.625ZM72.5498 433.618C45.9781 433.618 24.3823 412.022 24.3823 385.451C24.3823 358.879 45.9781 337.283 72.5498 337.283C99.1215 337.283 120.717 358.879 120.717 385.451C120.717 412.022 99.1215 433.618 72.5498 433.618Z" fill="white"/>
<path d="M72.5503 353.604C54.9353 353.604 40.6045 367.934 40.6045 385.549C40.6045 403.164 54.8358 417.495 72.5503 417.495C90.1652 417.495 104.496 403.164 104.496 385.549C104.397 367.934 90.1652 353.604 72.5503 353.604ZM72.5503 402.667C63.0959 402.667 55.4329 395.004 55.4329 385.549C55.4329 376.095 63.0959 368.432 72.5503 368.432C82.0046 368.432 89.6676 376.095 89.6676 385.549C89.6676 395.004 82.0046 402.667 72.5503 402.667Z" fill="white"/>
</g>
<g opacity="0.6">
<path d="M1831.3 11.9214L1831.3 0.000446322L1863 0.000442506L1863 31.6992L1851.17 31.6992L1851.17 11.9214L1831.3 11.9214Z" fill="white"/>
<path d="M1809.9 33.3257L1809.9 21.4951L1841.6 21.4951L1841.6 53.1035L1829.68 53.1035L1829.68 33.3257L1809.9 33.3257Z" fill="white"/>
<path d="M1788.49 54.8178L1788.49 42.8969L1820.1 42.8969L1820.1 74.5957L1808.27 74.5957L1808.27 54.8178L1788.49 54.8178Z" fill="white"/>
<path d="M1767 76.2221L1767 64.3012L1798.7 64.3012L1798.7 96L1786.78 96L1786.78 76.2221L1767 76.2221Z" fill="white"/>
</g>
<defs>
<clipPath id="clip0_2505_472">
<rect width="258" height="258" fill="white" transform="translate(1713 871)"/>
</clipPath>
<clipPath id="clip1_2505_472">
<rect width="143" height="105" fill="white" transform="translate(268 831)"/>
</clipPath>
<clipPath id="clip2_2505_472">
<rect width="145" height="145" fill="white" transform="translate(0 313)"/>
</clipPath>
</defs>
</svg>
